<?xml version="1.0" encoding="utf-8"?>
<svg version="1.1" viewBox="0 -40 550 550" xmlns="http://www.w3.org/2000/svg">
  <g fill="#006298" fill-rule="none" stroke="none" stroke-width="1" stroke-linecap="butt" stroke-linejoin="miter" stroke-miterlimit="10" stroke-dasharray="" stroke-dashoffset="0" font-family="none" font-weight="none" font-size="none" text-anchor="none" style="mix-blend-mode: normal;" transform="matrix(3.446332, 0, 0, 3.751332, -673.586182, -516.260559)">
    <g data-paper-data="{&quot;isGlobalGroup&quot;:true,&quot;bounds&quot;:{&quot;x&quot;:65,&quot;y&quot;:134.91096067769388,&quot;width&quot;:420,&quot;height&quot;:200.17807864461224}}">
      <g data-paper-data="{&quot;fillRule&quot;:&quot;evenodd&quot;,&quot;fillRuleOriginal&quot;:&quot;evenodd&quot;,&quot;isIcon&quot;:true,&quot;iconStyle&quot;:&quot;standalone&quot;,&quot;selectedEffects&quot;:{&quot;container&quot;:&quot;triangle_simple_outline3&quot;,&quot;transformation&quot;:&quot;&quot;,&quot;pattern&quot;:&quot;&quot;},&quot;bounds&quot;:{&quot;x&quot;:200.4253260667158,&quot;y&quot;:134.91096067769388,&quot;width&quot;:149.1493478665684,&quot;height&quot;:129.93559557606665},&quot;widthRatioIconToContainer&quot;:0.46864262218011316,&quot;heightRatioIconToContainer&quot;:0.5128464428206175,&quot;relativeBoundsIconToContainer&quot;:{&quot;top&quot;:0.1511909708697078,&quot;left&quot;:0.00000405714571068623},&quot;iconType&quot;:&quot;icon&quot;,&quot;rawIconId&quot;:&quot;22591&quot;,&quot;isDetailed&quot;:false,&quot;blockLetter&quot;:&quot;A&quot;,&quot;suitableAsStandaloneIcon&quot;:true}" fill-rule="evenodd">
        <path d="M240.08737,218.30866l-0.03565,-0.03565l0.03565,-0.21459c0,-3.26912 0.85904,-7.02682 2.57713,-11.2738c1.07363,-2.36185 2.46949,-4.70062 4.18758,-7.01493c0.90657,-1.24068 2.39819,-2.85113 4.47346,-4.83203c2.14726,-1.81315 4.21134,-3.26842 6.19154,-4.36651c1.76562,-0.97857 3.99676,-1.92079 6.69271,-2.82736c2.19549,-0.71575 5.07038,-1.21692 8.62538,-1.5028l0.85904,-0.03565v0.03565l0.07199,-0.03565h2.11161l0.25024,0.03565l0.03565,-0.03565l0.21528,0.03565c2.95807,0 6.5613,0.69199 10.80829,2.07597c2.38631,0.88281 4.74815,2.02843 7.08694,3.43617c1.45527,0.85904 3.14959,2.11161 5.08226,3.75771c2.33878,2.21925 3.88911,3.93664 4.65239,5.15426c1.79008,2.43314 3.18594,5.04592 4.18758,7.83763c1.14562,3.4837 1.71809,6.52566 1.71809,9.12655l0.03495,0.14259h-0.03565l0.03565,0.03565v2.2542l-0.03565,0.03635l0.03565,0.03635c0,1.76492 -0.35788,4.3057 -1.07363,7.62305c-0.66822,2.33808 -1.39586,4.34205 -2.18291,6.01261c-0.85904,1.69432 -2.02773,3.51935 -3.50816,5.47579c-0.9541,1.16939 -2.19549,2.49326 -3.72205,3.97299c-2.4576,2.07597 -4.53287,3.61511 -6.22719,4.61675c-0.73952,0.38164 -1.40774,0.57247 -2.00397,0.57247c-1.59856,0 -2.67219,-0.78775 -3.22089,-2.36254c-0.09576,-0.42917 -0.14329,-0.79963 -0.14329,-1.10928c0,-1.36021 1.19316,-2.66031 3.57947,-3.90099c0.73952,-0.35788 1.92009,-1.26515 3.54242,-2.72042c2.07597,-2.0522 3.51935,-3.75771 4.33086,-5.11791c0.93034,-1.43151 1.70551,-2.92313 2.3262,-4.47346c0.85904,-2.43314 1.28822,-4.02051 1.28822,-4.76003l0.35858,-2.29055l-0.07199,-0.03565l0.07199,-0.21528v-0.32223l0.03565,-0.03635l-0.03565,-0.03565l0.03565,-0.14329l0.03565,-1.61045c0,-7.11 -2.63584,-13.29036 -7.90893,-18.53898c-1.95644,-1.74185 -3.39983,-2.87489 -4.33016,-3.39983c-4.86768,-3.03007 -10.00935,-4.54545 -15.42574,-4.54545h-1.64609l-0.21459,0.03565v-0.03565l-0.03565,0.03565h-0.03635c-2.40937,0 -5.32062,0.56058 -8.73232,1.68244c-1.81385,0.69199 -3.63888,1.59856 -5.47579,2.72042c-1.16939,0.69199 -2.79172,2.00397 -4.86768,3.93664l-1.18127,1.28822c-4.55733,5.08226 -6.836,10.90405 -6.836,17.46535l0.03565,0.39352h-0.03635l0.03565,0.03565v0.03565c0,4.67686 1.95644,10.04501 5.86931,16.10584c3.17336,4.72439 5.51214,8.29127 7.01493,10.70135c0.52493,0.88351 1.03728,1.86068 1.53845,2.93501h-0.03565c-3.19712,-1.45527 -6.17966,-3.16147 -8.94761,-5.11791c-2.09972,-1.64609 -3.80523,-3.30546 -5.11791,-4.97462c-1.5028,-2.09972 -2.61278,-3.88911 -3.32853,-5.36885c-0.85904,-1.67055 -1.65868,-3.75771 -2.39819,-6.26353c-0.42917,-1.57479 -0.77517,-3.2803 -1.03798,-5.11722l-0.17894,-1.96832h0.03565l-0.03565,-0.03635l-0.03495,-1.82503v-1.00234l0.03565,-0.03565l-0.03565,-0.03565v-0.03565zM274.12338,195.54646h2.04032l0.03565,0.07199l0.03635,-0.07199c1.59856,0.04753 3.65076,0.38164 6.15589,1.00234c2.17103,0.69199 3.97299,1.44339 5.40379,2.2549c1.33645,0.73952 2.86371,1.86138 4.58179,3.36418c2.14726,2.07597 3.53124,3.63888 4.15123,4.68874c1.16939,1.69432 2.07597,3.49558 2.72042,5.40449c0.52493,1.31198 0.89469,3.20901 1.10928,5.69038v0.03565h-0.03565l0.03565,0.03565v1.32457c0,6.46554 -2.67219,12.24049 -8.01727,17.32206c-2.4576,2.17103 -4.0324,3.29288 -4.72439,3.36418c-0.42917,0.19082 -0.89399,0.28588 -1.39586,0.28588h-0.07129c-1.5035,0 -2.55336,-0.7514 -3.14959,-2.2549l-0.17964,-1.07363c0,-1.57479 1.04986,-2.82736 3.14959,-3.75771c0.66822,-0.33481 1.44339,-0.93104 2.3262,-1.79008c1.40844,-1.47973 2.41007,-2.83924 3.007,-4.08063c0.5487,-0.9541 1.07363,-2.28985 1.57479,-4.00793c0.28588,-1.40774 0.42917,-2.42195 0.42917,-3.04195h0.03565l-0.03565,-0.0727l0.03565,-0.17894v-1.93267l-0.03565,-0.17894h0.03565l-0.03565,-0.14329c0,-1.74185 -0.60811,-3.84158 -1.82503,-6.29918c-0.59693,-1.0974 -1.46785,-2.26679 -2.61278,-3.50747c-1.21622,-1.24068 -2.24232,-2.09972 -3.0776,-2.57713c-3.38794,-2.17103 -6.76401,-3.25724 -10.12818,-3.25724h-0.10694l-0.03635,-0.07199l-0.03565,0.07199h-0.10764l-0.03565,-0.07199l-0.03565,0.07199h-0.39352l-0.03635,-0.07199l-0.03565,0.07199h-0.64446l-0.21459,0.03565v-0.03565c-1.5028,0.14329 -2.67219,0.33411 -3.50816,0.57247c-4.00793,1.14492 -7.13376,3.03007 -9.37678,5.65473c-1.28891,1.40774 -2.29055,2.89866 -3.0063,4.47346c-0.93034,2.17103 -1.39586,4.21134 -1.39586,6.12025v0.7514l-0.03565,0.03565l0.03565,0.03565v0.07129c0,3.14959 1.19316,6.47812 3.57876,9.98559c6.06083,9.6389 10.72511,17.28641 13.99423,22.94114l-0.03565,0.03565h-0.03635c-4.17569,-0.38164 -6.96741,-0.77517 -8.37445,-1.18057c-5.55897,-8.78056 -8.67292,-13.66012 -9.34113,-14.63729c-2.95877,-4.48604 -4.79568,-7.77892 -5.51143,-9.87865c-0.78775,-2.36185 -1.18127,-4.80827 -1.18127,-7.33716c0,-5.48767 1.80126,-10.52241 5.40449,-15.10351c0.5487,-0.71575 1.68174,-1.8495 3.39983,-3.39983c3.24536,-2.57713 6.78777,-4.28264 10.62935,-5.11791c1.38467,-0.30685 3.0063,-0.52213 4.86768,-0.64096v0.07199zM274.69654,205.06653h1.10998l0.07199,0.07199l0.03565,-0.07199h0.03565l0.03635,0.07199l0.03565,-0.07199c1.04986,0 2.46949,0.25024 4.25957,0.7514c3.6263,1.28822 6.38236,3.67453 8.26751,7.15823c1.04986,2.17103 1.57479,4.29522 1.57479,6.37048v0.21459c0,3.96111 -1.7062,7.55175 -5.11791,10.77264c-1.43151,1.14562 -2.7323,1.71809 -3.90099,1.71809c-1.45597,0 -2.54148,-0.77517 -3.25724,-2.3262c-0.11883,-0.33411 -0.19012,-0.68011 -0.21459,-1.03798c0,-1.19246 0.88281,-2.39749 2.64842,-3.61441c1.26445,-0.85904 2.07597,-1.8495 2.43314,-2.97065c0.28658,-0.81151 0.42917,-1.61045 0.42917,-2.39819v-0.14329c0,-2.38631 -1.04986,-4.49792 -3.14959,-6.33484c-1.38328,-1.0261 -3.10206,-1.53915 -5.15356,-1.53915l-0.28588,0.03565v-0.03565l-0.03635,0.03565h-0.07199c-1.88444,0 -3.69829,0.81081 -5.43944,2.43314c-1.40844,1.62233 -2.11161,3.4837 -2.11161,5.58343c0,1.78938 1.2288,4.42593 3.68641,7.90963c6.34672,9.99747 11.22628,17.88264 14.63729,23.65759c-3.05383,0.81081 -5.40379,1.21622 -7.05059,1.21622c-3.14959,-4.5811 -6.84788,-10.4623 -11.09487,-17.64359c-1.45527,-2.43384 -3.0776,-4.95156 -4.86698,-7.55245c-1.59856,-2.48137 -2.39889,-5.07038 -2.39889,-7.76634c0,-3.74582 1.37209,-7.06247 4.11628,-9.94925c1.47904,-1.36021 2.82736,-2.32689 4.04428,-2.89866c2.17103,-0.90657 3.61511,-1.36021 4.33016,-1.36021c0.4061,-0.09506 1.19316,-0.19082 2.36254,-0.28588v0.07199zM349.25741,260.6678c0.0215,0.04174 0.0421,0.08398 0.06181,0.1267c0.01926,0.04277 0.0374,0.08599 0.05442,0.12966c0.01747,0.04366 0.03381,0.08771 0.04904,0.13215c0.01478,0.04448 0.02867,0.08926 0.04165,0.13436c0.01299,0.04515 0.02486,0.09058 0.0356,0.13631c0.0103,0.04573 0.0197,0.09168 0.02822,0.13785c0.00851,0.04618 0.0159,0.09253 0.02217,0.13907c0.00582,0.04653 0.01075,0.0932 0.01478,0.14001c0.00358,0.04676 0.00627,0.09361 0.00806,0.14054c0.00134,0.04694 0.00179,0.09385 0.00134,0.14074c-0.00089,0.04694 -0.00291,0.09383 -0.00605,0.14068c-0.00313,0.04685 -0.00739,0.09358 -0.01277,0.14021c-0.00538,0.04667 -0.01186,0.09316 -0.01948,0.13947c-0.00761,0.04631 -0.01635,0.0924 -0.0262,0.13825c-0.00985,0.04591 -0.02083,0.09153 -0.03292,0.13684c-0.0121,0.04537 -0.0253,0.09038 -0.03964,0.13503c-0.01478,0.0447 -0.03023,0.08901 -0.04636,0.13295c-0.01657,0.04394 -0.03426,0.08745 -0.05307,0.13053c-0.01881,0.04304 -0.03852,0.08561 -0.05912,0.12771c-0.0206,0.0421 -0.04232,0.08369 -0.06516,0.12476c-0.02284,0.04102 -0.0468,0.08147 -0.07188,0.12133c-0.02463,0.03986 -0.05038,0.07909 -0.07726,0.1177c-0.02642,0.03856 -0.05397,0.07648 -0.08263,0.11373c-0.02867,0.03722 -0.05822,0.07374 -0.08868,0.10957c-0.03046,0.03579 -0.06158,0.07081 -0.09338,0.10507c-0.03225,0.03426 -0.06516,0.06772 -0.09875,0.10037c-0.03359,0.03265 -0.06808,0.06445 -0.10346,0.0954c-0.03538,0.03095 -0.07144,0.061 -0.10816,0.09015c-0.03673,0.0292 -0.07412,0.05746 -0.11219,0.08478c-0.03852,0.02736 -0.07748,0.05377 -0.1169,0.07921c-0.03941,0.02544 -0.0795,0.04989 -0.12025,0.07336c-0.21766,0.12585 -0.44809,0.22136 -0.69128,0.28652c-0.2432,0.06516 -0.49064,0.09775 -0.74234,0.09775h-143.41301c-0.04694,0 -0.09385,-0.00116 -0.14074,-0.00349c-0.04689,-0.00228 -0.0937,-0.00573 -0.14041,-0.01034c-0.04671,-0.00457 -0.09327,-0.0103 -0.13967,-0.0172c-0.04645,-0.0069 -0.09269,-0.01494 -0.13872,-0.02412c-0.04604,-0.00914 -0.09184,-0.01941 -0.13738,-0.03084c-0.04551,-0.01137 -0.09071,-0.02389 -0.13564,-0.03756c-0.04492,-0.01362 -0.08948,-0.02833 -0.13369,-0.04414c-0.04421,-0.01581 -0.08798,-0.03269 -0.13134,-0.05065c-0.0434,-0.01796 -0.08631,-0.03697 -0.12872,-0.05703c-0.04246,-0.02007 -0.08438,-0.04116 -0.12576,-0.06328c-0.04138,-0.02217 -0.0822,-0.0453 -0.12247,-0.0694c-0.04026,-0.02414 -0.07992,-0.04926 -0.11898,-0.07537c-0.03901,-0.02606 -0.07737,-0.05307 -0.11508,-0.08102c-0.03771,-0.028 -0.0747,-0.05686 -0.11098,-0.0866c-0.03628,-0.02979 -0.07182,-0.06044 -0.10661,-0.09197c-0.0348,-0.03153 -0.0688,-0.06389 -0.10198,-0.09707c-0.03319,-0.03319 -0.06554,-0.06718 -0.09707,-0.10198c-0.03153,-0.03475 -0.06217,-0.07029 -0.09191,-0.10661c-0.02979,-0.03628 -0.05867,-0.07327 -0.08666,-0.11098c-0.02795,-0.03771 -0.05495,-0.07607 -0.08102,-0.11508c-0.02611,-0.03905 -0.05121,-0.07871 -0.07531,-0.11898c-0.02414,-0.04022 -0.04727,-0.08104 -0.0694,-0.12247c-0.02213,-0.04138 -0.04324,-0.0833 -0.06335,-0.12576c-0.02007,-0.04241 -0.03908,-0.0853 -0.05703,-0.12865c-0.01796,-0.0434 -0.03484,-0.0872 -0.05065,-0.13141c-0.01581,-0.04416 -0.03052,-0.0887 -0.04414,-0.13362c-0.01366,-0.04492 -0.02618,-0.09015 -0.03756,-0.1357c-0.01142,-0.04555 -0.0217,-0.09134 -0.03084,-0.13738c-0.00918,-0.04604 -0.01722,-0.09226 -0.02412,-0.13866c-0.00685,-0.04645 -0.01259,-0.09302 -0.0172,-0.13974c-0.00462,-0.04671 -0.00806,-0.09352 -0.01034,-0.14041c-0.00233,-0.04689 -0.00349,-0.09381 -0.00349,-0.14074c0,-0.25175 0.03258,-0.4992 0.09775,-0.74234c0.06516,-0.2432 0.16067,-0.47378 0.28652,-0.69175l71.7064,-124.19911c0.02347,-0.04067 0.04792,-0.08073 0.07336,-0.12018c0.02544,-0.03946 0.05184,-0.07827 0.07921,-0.11643c0.02732,-0.03816 0.05558,-0.07563 0.08478,-0.11239c0.02916,-0.03677 0.0592,-0.0728 0.09015,-0.1081c0.03095,-0.03529 0.06275,-0.0698 0.0954,-0.10352c0.03265,-0.03372 0.0661,-0.06662 0.10037,-0.09868c0.03426,-0.03211 0.06929,-0.06335 0.10507,-0.09372c0.03579,-0.03037 0.07231,-0.05984 0.10957,-0.08841c0.03722,-0.02858 0.07513,-0.05623 0.11373,-0.08296c0.03861,-0.02669 0.07784,-0.05245 0.1177,-0.07726c0.03986,-0.02477 0.0803,-0.04855 0.12133,-0.07135c0.04102,-0.0228 0.08261,-0.04459 0.12476,-0.06536c0.0421,-0.02074 0.08467,-0.04044 0.12771,-0.05912c0.04308,-0.01867 0.0866,-0.03628 0.13053,-0.05281c0.04394,-0.01657 0.08823,-0.03202 0.13288,-0.04636c0.0447,-0.01438 0.08973,-0.02763 0.1351,-0.03977c0.04533,-0.01214 0.09094,-0.02318 0.13684,-0.03312c0.04586,-0.0099 0.09195,-0.01867 0.13825,-0.02633c0.04631,-0.00761 0.09278,-0.01411 0.1394,-0.01948c0.04667,-0.00538 0.09343,-0.00958 0.14027,-0.01263c0.0468,-0.00309 0.09367,-0.00502 0.14061,-0.00578c0.04694,-0.00076 0.09387,-0.00038 0.14081,0.00114c0.04689,0.00152 0.09374,0.00421 0.14054,0.00806c0.0468,0.00385 0.09347,0.00882 0.14001,0.01491c0.04653,0.00614 0.09289,0.01342 0.13907,0.02184c0.04618,0.00837 0.09213,0.01789 0.13785,0.02855c0.04573,0.01066 0.09116,0.02244 0.13631,0.03533c0.0451,0.0129 0.08988,0.02689 0.13436,0.04199c0.04443,0.01509 0.08848,0.03126 0.13215,0.0485c0.04366,0.01724 0.08686,0.03556 0.12959,0.05495c0.04277,0.01934 0.08503,0.03975 0.12677,0.0612c0.04178,0.02146 0.08299,0.04392 0.12361,0.06738c0.21802,0.1259 0.41604,0.27784 0.59408,0.45582c0.17798,0.17802 0.32993,0.37605 0.45582,0.59408l71.70627,124.19911c0.02374,0.04062 0.04613,0.08182 0.06718,0.12361zM274.99998,143.5157l-66.73842,115.59433h133.47704z" data-paper-data="{&quot;isPathIcon&quot;:true}" style="fill: rgb(254, 254, 254);"/>
      </g>
    </g>
  </g>
</svg>